<mxfile host="app.diagrams.net" modified="2021-03-07T20:22:22.126Z" agent="5.0 (Windows NT 10.0; Win64; x64) AppleWebKit/537.36 (KHTML, like Gecko) Chrome/89.0.4389.82 Safari/537.36" etag="PzCN01bZ99Rnbnxd5680" version="14.4.4" type="github">
  <diagram id="vnQc-Ibh3bxFLK3tPflv" name="Page-1">
    <mxGraphModel dx="868" dy="492" grid="1" gridSize="10" guides="1" tooltips="1" connect="1" arrows="1" fold="1" page="1" pageScale="1" pageWidth="850" pageHeight="1100" math="0" shadow="0">
      <root>
        <mxCell id="0" />
        <mxCell id="1" parent="0" />
        <mxCell id="9rL7f96wD4QYRrFU4fa1-5" value="" style="edgeStyle=orthogonalEdgeStyle;rounded=0;orthogonalLoop=1;jettySize=auto;html=1;entryX=0.25;entryY=0;entryDx=0;entryDy=0;" edge="1" parent="1" source="9rL7f96wD4QYRrFU4fa1-1" target="9rL7f96wD4QYRrFU4fa1-4">
          <mxGeometry relative="1" as="geometry" />
        </mxCell>
        <mxCell id="9rL7f96wD4QYRrFU4fa1-1" value="Desktop UI" style="rounded=0;whiteSpace=wrap;html=1;" vertex="1" parent="1">
          <mxGeometry x="360" y="230" width="120" height="60" as="geometry" />
        </mxCell>
        <mxCell id="9rL7f96wD4QYRrFU4fa1-9" value="" style="edgeStyle=orthogonalEdgeStyle;rounded=0;orthogonalLoop=1;jettySize=auto;html=1;entryX=0.75;entryY=0;entryDx=0;entryDy=0;" edge="1" parent="1" source="9rL7f96wD4QYRrFU4fa1-2" target="9rL7f96wD4QYRrFU4fa1-4">
          <mxGeometry relative="1" as="geometry">
            <mxPoint x="620" y="370" as="targetPoint" />
          </mxGeometry>
        </mxCell>
        <mxCell id="9rL7f96wD4QYRrFU4fa1-2" value="Mobile UI" style="whiteSpace=wrap;html=1;rounded=0;" vertex="1" parent="1">
          <mxGeometry x="560" y="230" width="120" height="60" as="geometry" />
        </mxCell>
        <mxCell id="9rL7f96wD4QYRrFU4fa1-4" value="API Gateway" style="whiteSpace=wrap;html=1;rounded=0;" vertex="1" parent="1">
          <mxGeometry x="458" y="370" width="120" height="60" as="geometry" />
        </mxCell>
      </root>
    </mxGraphModel>
  </diagram>
</mxfile>
